<svg width="267" height="39" viewBox="0 0 267 39" fill="none" xmlns="http://www.w3.org/2000/svg">
  <path d="M22.464 11.104L32.928 28.8C33.3547 29.504 33.568 30.1013 33.568 30.592C33.568 31.0613 33.376 31.4133 32.992 31.648C32.608 31.8827 32.16 32 31.648 32H21.344C20.2987 32 19.6267 31.808 19.328 31.424C19.2427 31.296 19.1253 31.072 18.976 30.752L18.048 28.768C17.7707 28.1493 17.12 27.7973 16.096 27.712H10.048C9.6 27.712 9.25867 27.7547 9.024 27.84C8.78933 27.9253 8.59733 28.1173 8.448 28.416L7.2 31.008C6.98667 31.392 6.752 31.6587 6.496 31.808C6.24 31.936 5.86667 32 5.376 32H2.496C1.664 32 1.216 31.7013 1.152 31.104C1.13067 31.0187 1.12 30.9333 1.12 30.848C1.12 30.3573 1.28 29.888 1.6 29.44L11.616 11.776C12.576 10.112 14.1333 9.28 16.288 9.28H18.848C20.5547 9.28 21.76 9.888 22.464 11.104ZM12.096 19.296L10.624 22.208C10.5387 22.4 10.496 22.5707 10.496 22.72C10.496 23.2747 10.7627 23.552 11.296 23.552H14.208C14.656 23.552 14.9653 23.4453 15.136 23.232C15.3067 22.9973 15.392 22.7947 15.392 22.624C15.392 22.4533 15.36 22.2827 15.296 22.112L14.08 19.36C13.824 18.8053 13.4933 18.528 13.088 18.528C12.6827 18.528 12.352 18.784 12.096 19.296ZM50.4955 30.624L50.5275 22.816C50.5275 22.176 50.3675 21.696 50.0475 21.376C49.7275 21.056 49.3222 20.896 48.8315 20.896C48.3622 20.896 47.9248 21.0667 47.5195 21.408C47.1355 21.728 46.9435 22.1867 46.9435 22.784V24.736C46.9435 27.552 46.8795 29.472 46.7515 30.496C46.6875 30.8587 46.5062 31.1787 46.2075 31.456C45.9088 31.7333 45.3755 31.904 44.6075 31.968C43.8608 32.0107 43.1142 32.032 42.3675 32.032C41.6208 32.032 40.3515 31.9893 38.5595 31.904C38.0475 31.8827 37.6422 31.7333 37.3435 31.456C37.0448 31.1787 36.8742 30.8587 36.8315 30.496C36.6822 29.1093 36.6075 26.9867 36.6075 24.128C36.6075 21.2693 36.6502 19.3173 36.7355 18.272C36.8208 17.2053 36.9808 16.512 37.2155 16.192C37.4502 15.872 37.9302 15.712 38.6555 15.712H44.8955C45.6208 15.712 46.1008 15.872 46.3355 16.192C46.5915 16.512 46.7515 17.056 46.8155 17.824V17.856C48.4582 16.1493 50.4528 15.296 52.7995 15.296C55.1675 15.296 57.0235 15.872 58.3675 17.024C59.7115 18.176 60.3942 19.7653 60.4155 21.792C60.4582 23.8187 60.4795 25.632 60.4795 27.232C60.4795 28.832 60.4688 29.9093 60.4475 30.464C60.4262 31.0187 60.2768 31.424 59.9995 31.68C59.7435 31.9147 59.2315 32.032 58.4635 32.032L52.3195 32.096C51.6368 32.096 51.1568 31.9787 50.8795 31.744C50.6235 31.488 50.4955 31.1147 50.4955 30.624ZM66.0618 15.808H72.3018C73.0271 15.808 73.5071 15.968 73.7418 16.288C73.9978 16.608 74.1578 17.3227 74.2218 18.432C74.3071 19.52 74.3498 21.5253 74.3498 24.448C74.3498 27.3493 74.2858 29.3973 74.1578 30.592C74.0938 30.9547 73.9124 31.2747 73.6138 31.552C73.3151 31.8293 72.7818 31.9893 72.0138 32.032C71.2671 32.096 70.3711 32.128 69.3258 32.128C68.2804 32.128 67.3311 32.096 66.4778 32.032C65.6244 31.9893 65.0484 31.8293 64.7498 31.552C64.4511 31.2747 64.2804 30.9547 64.2378 30.592C64.0884 29.2053 64.0138 27.0827 64.0138 24.224C64.0138 21.344 64.0564 19.3813 64.1418 18.336C64.2271 17.2907 64.3871 16.608 64.6218 16.288C64.8564 15.968 65.3364 15.808 66.0618 15.808ZM69.5178 8.256C70.9258 8.256 71.9818 8.544 72.6858 9.12C73.4111 9.67467 73.7738 10.4427 73.7738 11.424C73.7738 13.728 72.2378 14.88 69.1658 14.88C67.9284 14.88 66.8724 14.6133 65.9978 14.08C65.1231 13.5467 64.6858 12.7467 64.6858 11.68C64.6858 9.39733 66.2964 8.256 69.5178 8.256ZM105.593 30.624L105.625 22.816C105.625 22.176 105.465 21.696 105.145 21.376C104.825 21.056 104.42 20.896 103.929 20.896C103.46 20.896 103.023 21.0667 102.617 21.408C102.233 21.728 102.041 22.1867 102.041 22.784L102.073 27.424C102.073 28.896 102.063 29.9093 102.041 30.464C102.02 31.0187 101.871 31.424 101.593 31.68C101.337 31.9147 100.825 32.032 100.057 32.032L93.9132 32.096C93.2306 32.096 92.7506 31.9787 92.4733 31.744C92.2173 31.488 92.0893 31.1147 92.0893 30.624L92.1213 22.816C92.1213 22.176 91.9613 21.696 91.6413 21.376C91.3213 21.056 90.9159 20.896 90.4253 20.896C89.9559 20.896 89.5186 21.0667 89.1133 21.408C88.7293 21.728 88.5373 22.1867 88.5373 22.784V24.736C88.5373 27.552 88.4733 29.472 88.3453 30.496C88.2813 30.8587 88.0999 31.1787 87.8013 31.456C87.5026 31.7333 86.9693 31.904 86.2013 31.968C85.4546 32.0107 84.7079 32.032 83.9613 32.032C83.2146 32.032 81.9453 31.9893 80.1533 31.904C79.6413 31.8827 79.2359 31.7333 78.9373 31.456C78.6386 31.1787 78.4679 30.8587 78.4253 30.496C78.2759 29.1093 78.2013 26.9867 78.2013 24.128C78.2013 21.2693 78.2439 19.3173 78.3293 18.272C78.4146 17.2053 78.5746 16.512 78.8093 16.192C79.0439 15.872 79.5239 15.712 80.2493 15.712H86.4893C87.2146 15.712 87.6946 15.872 87.9293 16.192C88.1853 16.512 88.3453 17.056 88.4093 17.824V17.856C90.0519 16.1493 92.1426 15.296 94.6813 15.296C96.2386 15.296 97.5933 15.5947 98.7453 16.192C99.8973 16.7893 100.751 17.664 101.305 18.816C102.009 17.664 102.969 16.7893 104.185 16.192C105.423 15.5947 106.756 15.296 108.185 15.296C110.361 15.296 112.121 15.872 113.465 17.024C114.809 18.176 115.492 19.7653 115.513 21.792C115.556 23.8187 115.577 25.632 115.577 27.232C115.577 28.832 115.567 29.9093 115.545 30.464C115.524 31.0187 115.375 31.424 115.097 31.68C114.841 31.9147 114.329 32.032 113.561 32.032L107.417 32.096C106.735 32.096 106.255 31.9787 105.977 31.744C105.721 31.488 105.593 31.1147 105.593 30.624ZM130.372 15.2C137.326 15.2 140.836 17.4613 140.9 21.984C140.942 23.904 140.964 25.664 140.964 27.264C140.964 28.864 140.953 29.9413 140.932 30.496C140.91 31.0507 140.761 31.456 140.484 31.712C140.228 31.9467 139.716 32.064 138.948 32.064H132.164C131.481 32.064 131.012 31.9467 130.756 31.712C130.5 31.456 130.361 31.0827 130.34 30.592C130.34 30.5707 130.329 30.5387 130.308 30.496C130.308 30.432 130.308 30.3787 130.308 30.336C128.9 31.7867 126.98 32.512 124.548 32.512C122.862 32.512 121.422 32.096 120.228 31.264C119.054 30.4107 118.468 29.248 118.468 27.776C118.468 26.2827 118.884 25.0987 119.716 24.224C120.569 23.328 121.572 22.72 122.724 22.4C123.897 22.08 125.145 21.92 126.468 21.92C127.812 21.92 129.124 22.048 130.404 22.304V22.176C130.404 21.1093 130.19 20.3413 129.764 19.872C129.358 19.4027 128.686 19.168 127.748 19.168C126.83 19.168 126.062 19.2533 125.444 19.424C124.825 19.5733 124.356 19.7333 124.036 19.904C123.161 20.416 122.553 20.672 122.212 20.672C121.87 20.672 121.561 20.512 121.284 20.192C121.028 19.872 120.9 19.3813 120.9 18.72C120.9 18.0373 121.017 17.568 121.252 17.312C121.508 17.056 121.902 16.8 122.436 16.544C124.292 15.648 126.937 15.2 130.372 15.2ZM128.868 28.288C129.806 28.288 130.286 28.1067 130.308 27.744C130.35 27.04 130.372 26.112 130.372 24.96C130.372 24.512 130.03 24.288 129.348 24.288C128.665 24.288 128.11 24.4587 127.684 24.8C127.257 25.12 127.044 25.6 127.044 26.24C127.044 26.88 127.214 27.3813 127.556 27.744C127.918 28.1067 128.356 28.288 128.868 28.288ZM146.875 8.608H153.019C153.723 8.608 154.192 8.77867 154.427 9.12C154.662 9.44 154.811 9.96267 154.875 10.688C155.003 13.248 155.067 16.7893 155.067 21.312C155.067 25.8133 154.982 28.9173 154.811 30.624C154.768 30.9653 154.598 31.2747 154.299 31.552C154 31.8293 153.467 31.9893 152.699 32.032C151.952 32.096 151.067 32.128 150.043 32.128C149.019 32.128 148.102 32.1067 147.291 32.064C145.904 31.9573 145.179 31.4773 145.115 30.624C144.902 28.768 144.795 25.4827 144.795 20.768C144.795 16.032 144.88 12.672 145.051 10.688C145.115 9.96267 145.254 9.44 145.467 9.12C145.702 8.77867 146.171 8.608 146.875 8.608ZM183.029 32.64C179.189 32.64 176.149 31.6693 173.909 29.728C171.69 27.7653 170.581 25.0027 170.581 21.44C170.581 19.264 170.933 17.3547 171.637 15.712C172.362 14.0693 173.375 12.7573 174.677 11.776C177.258 9.83467 180.661 8.864 184.885 8.864C187.615 8.864 190.346 9.23733 193.077 9.984C194.122 10.3253 194.645 11.168 194.645 12.512C194.645 14.3467 194.069 15.264 192.917 15.264C192.725 15.264 192.095 15.1787 191.029 15.008C189.962 14.8373 189.215 14.752 188.789 14.752C187.274 14.752 186.101 15.2853 185.269 16.352C184.458 17.3973 184.053 18.656 184.053 20.128C184.053 21.5787 184.437 22.8587 185.205 23.968C185.973 25.0773 187.018 25.6533 188.341 25.696C189.237 25.7387 190.826 25.76 193.109 25.76C194.218 25.76 194.826 26.2827 194.933 27.328C194.997 27.712 195.029 28.1067 195.029 28.512C195.029 28.896 194.997 29.2907 194.933 29.696C194.805 30.464 194.207 31.0293 193.141 31.392C192.074 31.7333 190.538 32.0213 188.533 32.256C186.527 32.512 184.693 32.64 183.029 32.64ZM209.309 15.2C216.264 15.2 219.773 17.4613 219.837 21.984C219.88 23.904 219.901 25.664 219.901 27.264C219.901 28.864 219.89 29.9413 219.869 30.496C219.848 31.0507 219.698 31.456 219.421 31.712C219.165 31.9467 218.653 32.064 217.885 32.064H211.101C210.418 32.064 209.949 31.9467 209.693 31.712C209.437 31.456 209.298 31.0827 209.277 30.592C209.277 30.5707 209.266 30.5387 209.245 30.496C209.245 30.432 209.245 30.3787 209.245 30.336C207.837 31.7867 205.917 32.512 203.485 32.512C201.8 32.512 200.36 32.096 199.165 31.264C197.992 30.4107 197.405 29.248 197.405 27.776C197.405 26.2827 197.821 25.0987 198.653 24.224C199.506 23.328 200.509 22.72 201.661 22.4C202.834 22.08 204.082 21.92 205.405 21.92C206.749 21.92 208.061 22.048 209.341 22.304V22.176C209.341 21.1093 209.128 20.3413 208.701 19.872C208.296 19.4027 207.624 19.168 206.685 19.168C205.768 19.168 205 19.2533 204.381 19.424C203.762 19.5733 203.293 19.7333 202.973 19.904C202.098 20.416 201.49 20.672 201.149 20.672C200.808 20.672 200.498 20.512 200.221 20.192C199.965 19.872 199.837 19.3813 199.837 18.72C199.837 18.0373 199.954 17.568 200.189 17.312C200.445 17.056 200.84 16.8 201.373 16.544C203.229 15.648 205.874 15.2 209.309 15.2ZM207.805 28.288C208.744 28.288 209.224 28.1067 209.245 27.744C209.288 27.04 209.309 26.112 209.309 24.96C209.309 24.512 208.968 24.288 208.285 24.288C207.602 24.288 207.048 24.4587 206.621 24.8C206.194 25.12 205.981 25.6 205.981 26.24C205.981 26.88 206.152 27.3813 206.493 27.744C206.856 28.1067 207.293 28.288 207.805 28.288ZM225.781 15.712H232.021C232.746 15.712 233.247 15.872 233.525 16.192C233.802 16.4907 233.941 16.9493 233.941 17.568V18.72C235.135 16.4587 237.077 15.328 239.765 15.328C240.661 15.328 241.397 15.616 241.973 16.192C242.549 16.768 242.837 17.536 242.837 18.496C242.837 19.456 242.581 20.416 242.069 21.376C241.557 22.3147 240.842 22.784 239.925 22.784C239.498 22.784 238.901 22.5707 238.133 22.144C237.365 21.696 236.746 21.472 236.277 21.472C235.807 21.472 235.317 21.6427 234.805 21.984C234.314 22.3253 234.069 22.8907 234.069 23.68C234.069 27.1147 234.005 29.3867 233.877 30.496C233.813 30.8587 233.631 31.1787 233.333 31.456C233.034 31.7333 232.501 31.904 231.733 31.968C230.986 32.0107 230.239 32.032 229.493 32.032C228.746 32.032 227.477 31.9893 225.685 31.904C225.173 31.8827 224.767 31.7333 224.469 31.456C224.17 31.1787 223.999 30.8587 223.957 30.496C223.807 29.1093 223.733 26.9867 223.733 24.128C223.733 21.2693 223.775 19.3173 223.861 18.272C223.946 17.2053 224.106 16.512 224.341 16.192C224.575 15.872 225.055 15.712 225.781 15.712ZM249.18 16.704C250.161 16.2133 251.164 15.8613 252.188 15.648C253.233 15.4347 254.513 15.328 256.028 15.328C257.564 15.328 259.025 15.52 260.412 15.904C261.798 16.2667 262.833 16.768 263.516 17.408C264.71 18.5813 265.308 19.9573 265.308 21.536C265.308 24.0107 263.217 25.248 259.036 25.248C257.564 25.248 256.038 25.1093 254.46 24.832C254.524 26.24 254.78 27.232 255.228 27.808C255.697 28.384 256.518 28.672 257.692 28.672C258.865 28.672 259.836 28.544 260.604 28.288C261.372 28.032 261.99 27.776 262.46 27.52C262.929 27.2427 263.324 27.104 263.644 27.104C263.985 27.104 264.273 27.2533 264.508 27.552C264.87 27.936 265.052 28.4693 265.052 29.152C265.052 29.8133 264.913 30.272 264.636 30.528C264.38 30.7627 263.964 30.9973 263.388 31.232C261.361 32.0853 258.481 32.512 254.748 32.512C251.654 32.512 249.105 31.776 247.1 30.304C245.116 28.8107 244.124 26.8053 244.124 24.288C244.124 23.072 244.348 21.9627 244.796 20.96C245.244 19.936 245.841 19.0933 246.588 18.432C247.334 17.7493 248.198 17.1733 249.18 16.704ZM256.604 18.976C255.302 18.976 254.598 20.032 254.492 22.144C255.516 22.2293 256.049 22.272 256.092 22.272C257.5 22.272 258.204 21.8027 258.204 20.864C258.204 19.6053 257.67 18.976 256.604 18.976Z" fill="white"/>
  <rect x="64" y="7" width="11" height="8" fill="#4E4187"/>
  <path d="M74 8.638C74 9.33392 73.7328 10.0023 73.2556 10.4968C72.1572 11.6354 71.0918 12.8226 69.9524 13.9199C69.6912 14.1677 69.2769 14.1587 69.027 13.8996L65.7442 10.4968C64.7519 9.46824 64.7519 7.80775 65.7442 6.77921C66.7462 5.74055 68.3786 5.74055 69.3806 6.77921L69.4999 6.90289L69.6192 6.77928C70.0996 6.28103 70.7539 6 71.4374 6C72.1209 6 72.7751 6.281 73.2556 6.77921C73.7328 7.2737 74 7.9421 74 8.638Z" fill="#DF3737" stroke="#DF3737" stroke-width="2" stroke-linejoin="round"/>
  </svg>
  